%FSLAX45Y45*%
G04 Gerber Fmt 4.5, Leading zero omitted, Abs format (unit mm)*
G04 Created by KiCad (PCBNEW (6.0.2-0)) date 2022-08-15 15:04:25*
%MOMM*%
%LPD*%
G01*
G04 APERTURE LIST*
%TA.AperFunction,Profile*%
%ADD10C,0.100000*%
%TD*%
%ADD11C,0.200000*%
%ADD12C,0.060000*%
%ADD13C,0.080000*%
%ADD14C,0.100000*%
%ADD15C,0.110000*%
%ADD16C,0.152000*%
G04 APERTURE END LIST*
D10*
X6350000Y-4064000D02*
X13665200Y-4064000D01*
X13665200Y-4064000D02*
X13665200Y-12090400D01*
X13665200Y-12090400D02*
X6350000Y-12090400D01*
X6350000Y-12090400D02*
X6350000Y-4064000D01*
D11*
D12*
X9080240Y-5812000D02*
X9140240Y-5872000D01*
X9140240Y-5812000D02*
X9080240Y-5872000D01*
X9080240Y-8161500D02*
X9140240Y-8221500D01*
X9140240Y-8161500D02*
X9080240Y-8221500D01*
X9280240Y-5812000D02*
X9340240Y-5872000D01*
X9340240Y-5812000D02*
X9280240Y-5872000D01*
X9280240Y-8161500D02*
X9340240Y-8221500D01*
X9340240Y-8161500D02*
X9280240Y-8221500D01*
X12128240Y-4605500D02*
X12188240Y-4665500D01*
X12188240Y-4605500D02*
X12128240Y-4665500D01*
X12328240Y-4605500D02*
X12388240Y-4665500D01*
X12388240Y-4605500D02*
X12328240Y-4665500D01*
D13*
X6823800Y-7518400D02*
G75*
G03*
X6823800Y-7518400I-40000J0D01*
G01*
X6836000Y-5460000D02*
G75*
G03*
X6836000Y-5460000I-40000J0D01*
G01*
X6836000Y-6222000D02*
G75*
G03*
X6836000Y-6222000I-40000J0D01*
G01*
X6836000Y-7809500D02*
G75*
G03*
X6836000Y-7809500I-40000J0D01*
G01*
X6836000Y-8571500D02*
G75*
G03*
X6836000Y-8571500I-40000J0D01*
G01*
X6836500Y-5156200D02*
G75*
G03*
X6836500Y-5156200I-40000J0D01*
G01*
X7073800Y-7518400D02*
G75*
G03*
X7073800Y-7518400I-40000J0D01*
G01*
X7086500Y-5156200D02*
G75*
G03*
X7086500Y-5156200I-40000J0D01*
G01*
X7090000Y-5460000D02*
G75*
G03*
X7090000Y-5460000I-40000J0D01*
G01*
X7090000Y-6222000D02*
G75*
G03*
X7090000Y-6222000I-40000J0D01*
G01*
X7090000Y-7809500D02*
G75*
G03*
X7090000Y-7809500I-40000J0D01*
G01*
X7090000Y-8571500D02*
G75*
G03*
X7090000Y-8571500I-40000J0D01*
G01*
X7344000Y-5460000D02*
G75*
G03*
X7344000Y-5460000I-40000J0D01*
G01*
X7344000Y-6222000D02*
G75*
G03*
X7344000Y-6222000I-40000J0D01*
G01*
X7344000Y-7809500D02*
G75*
G03*
X7344000Y-7809500I-40000J0D01*
G01*
X7344000Y-8571500D02*
G75*
G03*
X7344000Y-8571500I-40000J0D01*
G01*
X7598000Y-5460000D02*
G75*
G03*
X7598000Y-5460000I-40000J0D01*
G01*
X7598000Y-6222000D02*
G75*
G03*
X7598000Y-6222000I-40000J0D01*
G01*
X7598000Y-7809500D02*
G75*
G03*
X7598000Y-7809500I-40000J0D01*
G01*
X7598000Y-8571500D02*
G75*
G03*
X7598000Y-8571500I-40000J0D01*
G01*
X7837800Y-6731000D02*
G75*
G03*
X7837800Y-6731000I-40000J0D01*
G01*
X7837800Y-7239000D02*
G75*
G03*
X7837800Y-7239000I-40000J0D01*
G01*
X7852000Y-5460000D02*
G75*
G03*
X7852000Y-5460000I-40000J0D01*
G01*
X7852000Y-6222000D02*
G75*
G03*
X7852000Y-6222000I-40000J0D01*
G01*
X7852000Y-7809500D02*
G75*
G03*
X7852000Y-7809500I-40000J0D01*
G01*
X7852000Y-8571500D02*
G75*
G03*
X7852000Y-8571500I-40000J0D01*
G01*
X7888600Y-9093200D02*
G75*
G03*
X7888600Y-9093200I-40000J0D01*
G01*
X7888600Y-9601200D02*
G75*
G03*
X7888600Y-9601200I-40000J0D01*
G01*
X8106000Y-5460000D02*
G75*
G03*
X8106000Y-5460000I-40000J0D01*
G01*
X8106000Y-6222000D02*
G75*
G03*
X8106000Y-6222000I-40000J0D01*
G01*
X8106000Y-7809500D02*
G75*
G03*
X8106000Y-7809500I-40000J0D01*
G01*
X8106000Y-8571500D02*
G75*
G03*
X8106000Y-8571500I-40000J0D01*
G01*
X8360000Y-5460000D02*
G75*
G03*
X8360000Y-5460000I-40000J0D01*
G01*
X8360000Y-6222000D02*
G75*
G03*
X8360000Y-6222000I-40000J0D01*
G01*
X8360000Y-7809500D02*
G75*
G03*
X8360000Y-7809500I-40000J0D01*
G01*
X8360000Y-8571500D02*
G75*
G03*
X8360000Y-8571500I-40000J0D01*
G01*
X8599800Y-6731000D02*
G75*
G03*
X8599800Y-6731000I-40000J0D01*
G01*
X8599800Y-7239000D02*
G75*
G03*
X8599800Y-7239000I-40000J0D01*
G01*
X8614000Y-5460000D02*
G75*
G03*
X8614000Y-5460000I-40000J0D01*
G01*
X8614000Y-6222000D02*
G75*
G03*
X8614000Y-6222000I-40000J0D01*
G01*
X8614000Y-7809500D02*
G75*
G03*
X8614000Y-7809500I-40000J0D01*
G01*
X8614000Y-8571500D02*
G75*
G03*
X8614000Y-8571500I-40000J0D01*
G01*
X8650600Y-9093200D02*
G75*
G03*
X8650600Y-9093200I-40000J0D01*
G01*
X8650600Y-9601200D02*
G75*
G03*
X8650600Y-9601200I-40000J0D01*
G01*
X9209400Y-9093200D02*
G75*
G03*
X9209400Y-9093200I-40000J0D01*
G01*
X9971400Y-9093200D02*
G75*
G03*
X9971400Y-9093200I-40000J0D01*
G01*
X10734900Y-8711200D02*
G75*
G03*
X10734900Y-8711200I-40000J0D01*
G01*
X10734900Y-9473200D02*
G75*
G03*
X10734900Y-9473200I-40000J0D01*
G01*
X10739400Y-8293100D02*
G75*
G03*
X10739400Y-8293100I-40000J0D01*
G01*
X10988900Y-8711200D02*
G75*
G03*
X10988900Y-8711200I-40000J0D01*
G01*
X10988900Y-9473200D02*
G75*
G03*
X10988900Y-9473200I-40000J0D01*
G01*
X10989400Y-8293100D02*
G75*
G03*
X10989400Y-8293100I-40000J0D01*
G01*
X11242900Y-8711200D02*
G75*
G03*
X11242900Y-8711200I-40000J0D01*
G01*
X11242900Y-9473200D02*
G75*
G03*
X11242900Y-9473200I-40000J0D01*
G01*
X11496900Y-8711200D02*
G75*
G03*
X11496900Y-8711200I-40000J0D01*
G01*
X11496900Y-9473200D02*
G75*
G03*
X11496900Y-9473200I-40000J0D01*
G01*
X11750900Y-8711200D02*
G75*
G03*
X11750900Y-8711200I-40000J0D01*
G01*
X11750900Y-9473200D02*
G75*
G03*
X11750900Y-9473200I-40000J0D01*
G01*
X12004900Y-8711200D02*
G75*
G03*
X12004900Y-8711200I-40000J0D01*
G01*
X12004900Y-9473200D02*
G75*
G03*
X12004900Y-9473200I-40000J0D01*
G01*
X12066900Y-8204200D02*
G75*
G03*
X12066900Y-8204200I-40000J0D01*
G01*
X12258900Y-8711200D02*
G75*
G03*
X12258900Y-8711200I-40000J0D01*
G01*
X12258900Y-9473200D02*
G75*
G03*
X12258900Y-9473200I-40000J0D01*
G01*
X12512900Y-8711200D02*
G75*
G03*
X12512900Y-8711200I-40000J0D01*
G01*
X12512900Y-9473200D02*
G75*
G03*
X12512900Y-9473200I-40000J0D01*
G01*
X12828900Y-8204200D02*
G75*
G03*
X12828900Y-8204200I-40000J0D01*
G01*
D14*
X9398000Y-10008400D02*
X9398000Y-10108400D01*
X9348000Y-10058400D02*
X9448000Y-10058400D01*
X9652000Y-10008400D02*
X9652000Y-10108400D01*
X9602000Y-10058400D02*
X9702000Y-10058400D01*
X10604500Y-5172000D02*
X10604500Y-5272000D01*
X10554500Y-5222000D02*
X10654500Y-5222000D01*
X10604500Y-7458000D02*
X10604500Y-7558000D01*
X10554500Y-7508000D02*
X10654500Y-7508000D01*
X10858500Y-5172000D02*
X10858500Y-5272000D01*
X10808500Y-5222000D02*
X10908500Y-5222000D01*
X10858500Y-7458000D02*
X10858500Y-7558000D01*
X10808500Y-7508000D02*
X10908500Y-7508000D01*
X11112500Y-5172000D02*
X11112500Y-5272000D01*
X11062500Y-5222000D02*
X11162500Y-5222000D01*
X11112500Y-7458000D02*
X11112500Y-7558000D01*
X11062500Y-7508000D02*
X11162500Y-7508000D01*
X11366500Y-5172000D02*
X11366500Y-5272000D01*
X11316500Y-5222000D02*
X11416500Y-5222000D01*
X11366500Y-7458000D02*
X11366500Y-7558000D01*
X11316500Y-7508000D02*
X11416500Y-7508000D01*
X11620500Y-5172000D02*
X11620500Y-5272000D01*
X11570500Y-5222000D02*
X11670500Y-5222000D01*
X11620500Y-7458000D02*
X11620500Y-7558000D01*
X11570500Y-7508000D02*
X11670500Y-7508000D01*
X11874500Y-5172000D02*
X11874500Y-5272000D01*
X11824500Y-5222000D02*
X11924500Y-5222000D01*
X11874500Y-7458000D02*
X11874500Y-7558000D01*
X11824500Y-7508000D02*
X11924500Y-7508000D01*
X12128500Y-5172000D02*
X12128500Y-5272000D01*
X12078500Y-5222000D02*
X12178500Y-5222000D01*
X12128500Y-7458000D02*
X12128500Y-7558000D01*
X12078500Y-7508000D02*
X12178500Y-7508000D01*
X12382500Y-5172000D02*
X12382500Y-5272000D01*
X12332500Y-5222000D02*
X12432500Y-5222000D01*
X12382500Y-7458000D02*
X12382500Y-7558000D01*
X12332500Y-7508000D02*
X12432500Y-7508000D01*
X12934450Y-10627600D02*
X12934450Y-10727600D01*
X12884450Y-10677600D02*
X12984450Y-10677600D01*
D11*
X12834450Y-10717600D02*
X13034450Y-10717600D01*
X12834450Y-10637600D02*
X13034450Y-10637600D01*
X13034450Y-10717600D02*
G75*
G03*
X13034450Y-10637600I0J40000D01*
G01*
X12834450Y-10637600D02*
G75*
G03*
X12834450Y-10717600I0J-40000D01*
G01*
D14*
X12934450Y-11227600D02*
X12934450Y-11327600D01*
X12884450Y-11277600D02*
X12984450Y-11277600D01*
D11*
X12834450Y-11317600D02*
X13034450Y-11317600D01*
X12834450Y-11237600D02*
X13034450Y-11237600D01*
X13034450Y-11317600D02*
G75*
G03*
X13034450Y-11237600I0J40000D01*
G01*
X12834450Y-11237600D02*
G75*
G03*
X12834450Y-11317600I0J-40000D01*
G01*
D14*
X13404450Y-10927600D02*
X13404450Y-11027600D01*
X13354450Y-10977600D02*
X13454450Y-10977600D01*
D11*
X13444450Y-11077600D02*
X13444450Y-10877600D01*
X13364450Y-11077600D02*
X13364450Y-10877600D01*
X13444450Y-10877600D02*
G75*
G03*
X13364450Y-10877600I-40000J0D01*
G01*
X13364450Y-11077600D02*
G75*
G03*
X13444450Y-11077600I40000J0D01*
G01*
D15*
X11519691Y-9936291D02*
X11519691Y-9858509D01*
X11441909Y-9858509D01*
X11441909Y-9936291D01*
X11519691Y-9936291D01*
X11773691Y-9936291D02*
X11773691Y-9858509D01*
X11695909Y-9858509D01*
X11695909Y-9936291D01*
X11773691Y-9936291D01*
X12027691Y-9936291D02*
X12027691Y-9858509D01*
X11949909Y-9858509D01*
X11949909Y-9936291D01*
X12027691Y-9936291D01*
D16*
X6756400Y-11658400D02*
X6832400Y-11582400D01*
X6756400Y-11506400D01*
X6680400Y-11582400D01*
X6756400Y-11658400D01*
X7264400Y-11658400D02*
X7340400Y-11582400D01*
X7264400Y-11506400D01*
X7188400Y-11582400D01*
X7264400Y-11658400D01*
X7924800Y-11658400D02*
X8000800Y-11582400D01*
X7924800Y-11506400D01*
X7848800Y-11582400D01*
X7924800Y-11658400D01*
X8432800Y-11658400D02*
X8508800Y-11582400D01*
X8432800Y-11506400D01*
X8356800Y-11582400D01*
X8432800Y-11658400D01*
X9093200Y-11658400D02*
X9169200Y-11582400D01*
X9093200Y-11506400D01*
X9017200Y-11582400D01*
X9093200Y-11658400D01*
X9601200Y-11658400D02*
X9677200Y-11582400D01*
X9601200Y-11506400D01*
X9525200Y-11582400D01*
X9601200Y-11658400D01*
X10261600Y-11658400D02*
X10337600Y-11582400D01*
X10261600Y-11506400D01*
X10185600Y-11582400D01*
X10261600Y-11658400D01*
X10769600Y-11658400D02*
X10845600Y-11582400D01*
X10769600Y-11506400D01*
X10693600Y-11582400D01*
X10769600Y-11658400D01*
D11*
X6602619Y-12405876D02*
X6602619Y-12205876D01*
X6650238Y-12205876D01*
X6678809Y-12215400D01*
X6697857Y-12234448D01*
X6707381Y-12253495D01*
X6716905Y-12291590D01*
X6716905Y-12320162D01*
X6707381Y-12358257D01*
X6697857Y-12377305D01*
X6678809Y-12396352D01*
X6650238Y-12405876D01*
X6602619Y-12405876D01*
X6802619Y-12405876D02*
X6802619Y-12272543D01*
X6802619Y-12310638D02*
X6812143Y-12291590D01*
X6821667Y-12282067D01*
X6840714Y-12272543D01*
X6859762Y-12272543D01*
X6926428Y-12405876D02*
X6926428Y-12272543D01*
X6926428Y-12205876D02*
X6916905Y-12215400D01*
X6926428Y-12224924D01*
X6935952Y-12215400D01*
X6926428Y-12205876D01*
X6926428Y-12224924D01*
X7050238Y-12405876D02*
X7031190Y-12396352D01*
X7021667Y-12377305D01*
X7021667Y-12205876D01*
X7155000Y-12405876D02*
X7135952Y-12396352D01*
X7126428Y-12377305D01*
X7126428Y-12205876D01*
X7383571Y-12405876D02*
X7383571Y-12205876D01*
X7450238Y-12348733D01*
X7516905Y-12205876D01*
X7516905Y-12405876D01*
X7697857Y-12405876D02*
X7697857Y-12301114D01*
X7688333Y-12282067D01*
X7669286Y-12272543D01*
X7631190Y-12272543D01*
X7612143Y-12282067D01*
X7697857Y-12396352D02*
X7678809Y-12405876D01*
X7631190Y-12405876D01*
X7612143Y-12396352D01*
X7602619Y-12377305D01*
X7602619Y-12358257D01*
X7612143Y-12339209D01*
X7631190Y-12329686D01*
X7678809Y-12329686D01*
X7697857Y-12320162D01*
X7793095Y-12272543D02*
X7793095Y-12472543D01*
X7793095Y-12282067D02*
X7812143Y-12272543D01*
X7850238Y-12272543D01*
X7869286Y-12282067D01*
X7878809Y-12291590D01*
X7888333Y-12310638D01*
X7888333Y-12367781D01*
X7878809Y-12386828D01*
X7869286Y-12396352D01*
X7850238Y-12405876D01*
X7812143Y-12405876D01*
X7793095Y-12396352D01*
X7974048Y-12386828D02*
X7983571Y-12396352D01*
X7974048Y-12405876D01*
X7964524Y-12396352D01*
X7974048Y-12386828D01*
X7974048Y-12405876D01*
X7974048Y-12282067D02*
X7983571Y-12291590D01*
X7974048Y-12301114D01*
X7964524Y-12291590D01*
X7974048Y-12282067D01*
X7974048Y-12301114D01*
D12*
X6285000Y-12705400D02*
X6345000Y-12765400D01*
X6345000Y-12705400D02*
X6285000Y-12765400D01*
D11*
X6640714Y-12625876D02*
X6659762Y-12625876D01*
X6678809Y-12635400D01*
X6688333Y-12644924D01*
X6697857Y-12663971D01*
X6707381Y-12702067D01*
X6707381Y-12749686D01*
X6697857Y-12787781D01*
X6688333Y-12806828D01*
X6678809Y-12816352D01*
X6659762Y-12825876D01*
X6640714Y-12825876D01*
X6621667Y-12816352D01*
X6612143Y-12806828D01*
X6602619Y-12787781D01*
X6593095Y-12749686D01*
X6593095Y-12702067D01*
X6602619Y-12663971D01*
X6612143Y-12644924D01*
X6621667Y-12635400D01*
X6640714Y-12625876D01*
X6793095Y-12806828D02*
X6802619Y-12816352D01*
X6793095Y-12825876D01*
X6783571Y-12816352D01*
X6793095Y-12806828D01*
X6793095Y-12825876D01*
X6974048Y-12625876D02*
X6935952Y-12625876D01*
X6916905Y-12635400D01*
X6907381Y-12644924D01*
X6888333Y-12673495D01*
X6878809Y-12711590D01*
X6878809Y-12787781D01*
X6888333Y-12806828D01*
X6897857Y-12816352D01*
X6916905Y-12825876D01*
X6955000Y-12825876D01*
X6974048Y-12816352D01*
X6983571Y-12806828D01*
X6993095Y-12787781D01*
X6993095Y-12740162D01*
X6983571Y-12721114D01*
X6974048Y-12711590D01*
X6955000Y-12702067D01*
X6916905Y-12702067D01*
X6897857Y-12711590D01*
X6888333Y-12721114D01*
X6878809Y-12740162D01*
X7116905Y-12625876D02*
X7135952Y-12625876D01*
X7155000Y-12635400D01*
X7164524Y-12644924D01*
X7174048Y-12663971D01*
X7183571Y-12702067D01*
X7183571Y-12749686D01*
X7174048Y-12787781D01*
X7164524Y-12806828D01*
X7155000Y-12816352D01*
X7135952Y-12825876D01*
X7116905Y-12825876D01*
X7097857Y-12816352D01*
X7088333Y-12806828D01*
X7078809Y-12787781D01*
X7069286Y-12749686D01*
X7069286Y-12702067D01*
X7078809Y-12663971D01*
X7088333Y-12644924D01*
X7097857Y-12635400D01*
X7116905Y-12625876D01*
X7307381Y-12625876D02*
X7326428Y-12625876D01*
X7345476Y-12635400D01*
X7355000Y-12644924D01*
X7364524Y-12663971D01*
X7374048Y-12702067D01*
X7374048Y-12749686D01*
X7364524Y-12787781D01*
X7355000Y-12806828D01*
X7345476Y-12816352D01*
X7326428Y-12825876D01*
X7307381Y-12825876D01*
X7288333Y-12816352D01*
X7278809Y-12806828D01*
X7269286Y-12787781D01*
X7259762Y-12749686D01*
X7259762Y-12702067D01*
X7269286Y-12663971D01*
X7278809Y-12644924D01*
X7288333Y-12635400D01*
X7307381Y-12625876D01*
X7459762Y-12825876D02*
X7459762Y-12692543D01*
X7459762Y-12711590D02*
X7469286Y-12702067D01*
X7488333Y-12692543D01*
X7516905Y-12692543D01*
X7535952Y-12702067D01*
X7545476Y-12721114D01*
X7545476Y-12825876D01*
X7545476Y-12721114D02*
X7555000Y-12702067D01*
X7574048Y-12692543D01*
X7602619Y-12692543D01*
X7621667Y-12702067D01*
X7631190Y-12721114D01*
X7631190Y-12825876D01*
X7726428Y-12825876D02*
X7726428Y-12692543D01*
X7726428Y-12711590D02*
X7735952Y-12702067D01*
X7755000Y-12692543D01*
X7783571Y-12692543D01*
X7802619Y-12702067D01*
X7812143Y-12721114D01*
X7812143Y-12825876D01*
X7812143Y-12721114D02*
X7821667Y-12702067D01*
X7840714Y-12692543D01*
X7869286Y-12692543D01*
X7888333Y-12702067D01*
X7897857Y-12721114D01*
X7897857Y-12825876D01*
X8288333Y-12616352D02*
X8116905Y-12873495D01*
X8545476Y-12625876D02*
X8564524Y-12625876D01*
X8583571Y-12635400D01*
X8593095Y-12644924D01*
X8602619Y-12663971D01*
X8612143Y-12702067D01*
X8612143Y-12749686D01*
X8602619Y-12787781D01*
X8593095Y-12806828D01*
X8583571Y-12816352D01*
X8564524Y-12825876D01*
X8545476Y-12825876D01*
X8526429Y-12816352D01*
X8516905Y-12806828D01*
X8507381Y-12787781D01*
X8497857Y-12749686D01*
X8497857Y-12702067D01*
X8507381Y-12663971D01*
X8516905Y-12644924D01*
X8526429Y-12635400D01*
X8545476Y-12625876D01*
X8697857Y-12806828D02*
X8707381Y-12816352D01*
X8697857Y-12825876D01*
X8688333Y-12816352D01*
X8697857Y-12806828D01*
X8697857Y-12825876D01*
X8831190Y-12625876D02*
X8850238Y-12625876D01*
X8869286Y-12635400D01*
X8878810Y-12644924D01*
X8888333Y-12663971D01*
X8897857Y-12702067D01*
X8897857Y-12749686D01*
X8888333Y-12787781D01*
X8878810Y-12806828D01*
X8869286Y-12816352D01*
X8850238Y-12825876D01*
X8831190Y-12825876D01*
X8812143Y-12816352D01*
X8802619Y-12806828D01*
X8793095Y-12787781D01*
X8783571Y-12749686D01*
X8783571Y-12702067D01*
X8793095Y-12663971D01*
X8802619Y-12644924D01*
X8812143Y-12635400D01*
X8831190Y-12625876D01*
X8974048Y-12644924D02*
X8983571Y-12635400D01*
X9002619Y-12625876D01*
X9050238Y-12625876D01*
X9069286Y-12635400D01*
X9078810Y-12644924D01*
X9088333Y-12663971D01*
X9088333Y-12683019D01*
X9078810Y-12711590D01*
X8964524Y-12825876D01*
X9088333Y-12825876D01*
X9155000Y-12625876D02*
X9278810Y-12625876D01*
X9212143Y-12702067D01*
X9240714Y-12702067D01*
X9259762Y-12711590D01*
X9269286Y-12721114D01*
X9278810Y-12740162D01*
X9278810Y-12787781D01*
X9269286Y-12806828D01*
X9259762Y-12816352D01*
X9240714Y-12825876D01*
X9183571Y-12825876D01*
X9164524Y-12816352D01*
X9155000Y-12806828D01*
X9450238Y-12625876D02*
X9412143Y-12625876D01*
X9393095Y-12635400D01*
X9383571Y-12644924D01*
X9364524Y-12673495D01*
X9355000Y-12711590D01*
X9355000Y-12787781D01*
X9364524Y-12806828D01*
X9374048Y-12816352D01*
X9393095Y-12825876D01*
X9431190Y-12825876D01*
X9450238Y-12816352D01*
X9459762Y-12806828D01*
X9469286Y-12787781D01*
X9469286Y-12740162D01*
X9459762Y-12721114D01*
X9450238Y-12711590D01*
X9431190Y-12702067D01*
X9393095Y-12702067D01*
X9374048Y-12711590D01*
X9364524Y-12721114D01*
X9355000Y-12740162D01*
X9545476Y-12625876D02*
X9545476Y-12663971D01*
X9621667Y-12625876D02*
X9621667Y-12663971D01*
X9916905Y-12902067D02*
X9907381Y-12892543D01*
X9888333Y-12863971D01*
X9878810Y-12844924D01*
X9869286Y-12816352D01*
X9859762Y-12768733D01*
X9859762Y-12730638D01*
X9869286Y-12683019D01*
X9878810Y-12654448D01*
X9888333Y-12635400D01*
X9907381Y-12606828D01*
X9916905Y-12597305D01*
X10078810Y-12625876D02*
X10040714Y-12625876D01*
X10021667Y-12635400D01*
X10012143Y-12644924D01*
X9993095Y-12673495D01*
X9983571Y-12711590D01*
X9983571Y-12787781D01*
X9993095Y-12806828D01*
X10002619Y-12816352D01*
X10021667Y-12825876D01*
X10059762Y-12825876D01*
X10078810Y-12816352D01*
X10088333Y-12806828D01*
X10097857Y-12787781D01*
X10097857Y-12740162D01*
X10088333Y-12721114D01*
X10078810Y-12711590D01*
X10059762Y-12702067D01*
X10021667Y-12702067D01*
X10002619Y-12711590D01*
X9993095Y-12721114D01*
X9983571Y-12740162D01*
X10335952Y-12825876D02*
X10335952Y-12625876D01*
X10421667Y-12825876D02*
X10421667Y-12721114D01*
X10412143Y-12702067D01*
X10393095Y-12692543D01*
X10364524Y-12692543D01*
X10345476Y-12702067D01*
X10335952Y-12711590D01*
X10545476Y-12825876D02*
X10526429Y-12816352D01*
X10516905Y-12806828D01*
X10507381Y-12787781D01*
X10507381Y-12730638D01*
X10516905Y-12711590D01*
X10526429Y-12702067D01*
X10545476Y-12692543D01*
X10574048Y-12692543D01*
X10593095Y-12702067D01*
X10602619Y-12711590D01*
X10612143Y-12730638D01*
X10612143Y-12787781D01*
X10602619Y-12806828D01*
X10593095Y-12816352D01*
X10574048Y-12825876D01*
X10545476Y-12825876D01*
X10726429Y-12825876D02*
X10707381Y-12816352D01*
X10697857Y-12797305D01*
X10697857Y-12625876D01*
X10878810Y-12816352D02*
X10859762Y-12825876D01*
X10821667Y-12825876D01*
X10802619Y-12816352D01*
X10793095Y-12797305D01*
X10793095Y-12721114D01*
X10802619Y-12702067D01*
X10821667Y-12692543D01*
X10859762Y-12692543D01*
X10878810Y-12702067D01*
X10888333Y-12721114D01*
X10888333Y-12740162D01*
X10793095Y-12759209D01*
X10964524Y-12816352D02*
X10983571Y-12825876D01*
X11021667Y-12825876D01*
X11040714Y-12816352D01*
X11050238Y-12797305D01*
X11050238Y-12787781D01*
X11040714Y-12768733D01*
X11021667Y-12759209D01*
X10993095Y-12759209D01*
X10974048Y-12749686D01*
X10964524Y-12730638D01*
X10964524Y-12721114D01*
X10974048Y-12702067D01*
X10993095Y-12692543D01*
X11021667Y-12692543D01*
X11040714Y-12702067D01*
X11116905Y-12902067D02*
X11126429Y-12892543D01*
X11145476Y-12863971D01*
X11155000Y-12844924D01*
X11164524Y-12816352D01*
X11174048Y-12768733D01*
X11174048Y-12730638D01*
X11164524Y-12683019D01*
X11155000Y-12654448D01*
X11145476Y-12635400D01*
X11126429Y-12606828D01*
X11116905Y-12597305D01*
D13*
X6345000Y-12999400D02*
G75*
G03*
X6345000Y-12999400I-40000J0D01*
G01*
D11*
X6640714Y-12889876D02*
X6659762Y-12889876D01*
X6678809Y-12899400D01*
X6688333Y-12908924D01*
X6697857Y-12927971D01*
X6707381Y-12966067D01*
X6707381Y-13013686D01*
X6697857Y-13051781D01*
X6688333Y-13070828D01*
X6678809Y-13080352D01*
X6659762Y-13089876D01*
X6640714Y-13089876D01*
X6621667Y-13080352D01*
X6612143Y-13070828D01*
X6602619Y-13051781D01*
X6593095Y-13013686D01*
X6593095Y-12966067D01*
X6602619Y-12927971D01*
X6612143Y-12908924D01*
X6621667Y-12899400D01*
X6640714Y-12889876D01*
X6793095Y-13070828D02*
X6802619Y-13080352D01*
X6793095Y-13089876D01*
X6783571Y-13080352D01*
X6793095Y-13070828D01*
X6793095Y-13089876D01*
X6916905Y-12975590D02*
X6897857Y-12966067D01*
X6888333Y-12956543D01*
X6878809Y-12937495D01*
X6878809Y-12927971D01*
X6888333Y-12908924D01*
X6897857Y-12899400D01*
X6916905Y-12889876D01*
X6955000Y-12889876D01*
X6974048Y-12899400D01*
X6983571Y-12908924D01*
X6993095Y-12927971D01*
X6993095Y-12937495D01*
X6983571Y-12956543D01*
X6974048Y-12966067D01*
X6955000Y-12975590D01*
X6916905Y-12975590D01*
X6897857Y-12985114D01*
X6888333Y-12994638D01*
X6878809Y-13013686D01*
X6878809Y-13051781D01*
X6888333Y-13070828D01*
X6897857Y-13080352D01*
X6916905Y-13089876D01*
X6955000Y-13089876D01*
X6974048Y-13080352D01*
X6983571Y-13070828D01*
X6993095Y-13051781D01*
X6993095Y-13013686D01*
X6983571Y-12994638D01*
X6974048Y-12985114D01*
X6955000Y-12975590D01*
X7116905Y-12889876D02*
X7135952Y-12889876D01*
X7155000Y-12899400D01*
X7164524Y-12908924D01*
X7174048Y-12927971D01*
X7183571Y-12966067D01*
X7183571Y-13013686D01*
X7174048Y-13051781D01*
X7164524Y-13070828D01*
X7155000Y-13080352D01*
X7135952Y-13089876D01*
X7116905Y-13089876D01*
X7097857Y-13080352D01*
X7088333Y-13070828D01*
X7078809Y-13051781D01*
X7069286Y-13013686D01*
X7069286Y-12966067D01*
X7078809Y-12927971D01*
X7088333Y-12908924D01*
X7097857Y-12899400D01*
X7116905Y-12889876D01*
X7307381Y-12889876D02*
X7326428Y-12889876D01*
X7345476Y-12899400D01*
X7355000Y-12908924D01*
X7364524Y-12927971D01*
X7374048Y-12966067D01*
X7374048Y-13013686D01*
X7364524Y-13051781D01*
X7355000Y-13070828D01*
X7345476Y-13080352D01*
X7326428Y-13089876D01*
X7307381Y-13089876D01*
X7288333Y-13080352D01*
X7278809Y-13070828D01*
X7269286Y-13051781D01*
X7259762Y-13013686D01*
X7259762Y-12966067D01*
X7269286Y-12927971D01*
X7278809Y-12908924D01*
X7288333Y-12899400D01*
X7307381Y-12889876D01*
X7459762Y-13089876D02*
X7459762Y-12956543D01*
X7459762Y-12975590D02*
X7469286Y-12966067D01*
X7488333Y-12956543D01*
X7516905Y-12956543D01*
X7535952Y-12966067D01*
X7545476Y-12985114D01*
X7545476Y-13089876D01*
X7545476Y-12985114D02*
X7555000Y-12966067D01*
X7574048Y-12956543D01*
X7602619Y-12956543D01*
X7621667Y-12966067D01*
X7631190Y-12985114D01*
X7631190Y-13089876D01*
X7726428Y-13089876D02*
X7726428Y-12956543D01*
X7726428Y-12975590D02*
X7735952Y-12966067D01*
X7755000Y-12956543D01*
X7783571Y-12956543D01*
X7802619Y-12966067D01*
X7812143Y-12985114D01*
X7812143Y-13089876D01*
X7812143Y-12985114D02*
X7821667Y-12966067D01*
X7840714Y-12956543D01*
X7869286Y-12956543D01*
X7888333Y-12966067D01*
X7897857Y-12985114D01*
X7897857Y-13089876D01*
X8288333Y-12880352D02*
X8116905Y-13137495D01*
X8545476Y-12889876D02*
X8564524Y-12889876D01*
X8583571Y-12899400D01*
X8593095Y-12908924D01*
X8602619Y-12927971D01*
X8612143Y-12966067D01*
X8612143Y-13013686D01*
X8602619Y-13051781D01*
X8593095Y-13070828D01*
X8583571Y-13080352D01*
X8564524Y-13089876D01*
X8545476Y-13089876D01*
X8526429Y-13080352D01*
X8516905Y-13070828D01*
X8507381Y-13051781D01*
X8497857Y-13013686D01*
X8497857Y-12966067D01*
X8507381Y-12927971D01*
X8516905Y-12908924D01*
X8526429Y-12899400D01*
X8545476Y-12889876D01*
X8697857Y-13070828D02*
X8707381Y-13080352D01*
X8697857Y-13089876D01*
X8688333Y-13080352D01*
X8697857Y-13070828D01*
X8697857Y-13089876D01*
X8831190Y-12889876D02*
X8850238Y-12889876D01*
X8869286Y-12899400D01*
X8878810Y-12908924D01*
X8888333Y-12927971D01*
X8897857Y-12966067D01*
X8897857Y-13013686D01*
X8888333Y-13051781D01*
X8878810Y-13070828D01*
X8869286Y-13080352D01*
X8850238Y-13089876D01*
X8831190Y-13089876D01*
X8812143Y-13080352D01*
X8802619Y-13070828D01*
X8793095Y-13051781D01*
X8783571Y-13013686D01*
X8783571Y-12966067D01*
X8793095Y-12927971D01*
X8802619Y-12908924D01*
X8812143Y-12899400D01*
X8831190Y-12889876D01*
X8964524Y-12889876D02*
X9088333Y-12889876D01*
X9021667Y-12966067D01*
X9050238Y-12966067D01*
X9069286Y-12975590D01*
X9078810Y-12985114D01*
X9088333Y-13004162D01*
X9088333Y-13051781D01*
X9078810Y-13070828D01*
X9069286Y-13080352D01*
X9050238Y-13089876D01*
X8993095Y-13089876D01*
X8974048Y-13080352D01*
X8964524Y-13070828D01*
X9278810Y-13089876D02*
X9164524Y-13089876D01*
X9221667Y-13089876D02*
X9221667Y-12889876D01*
X9202619Y-12918448D01*
X9183571Y-12937495D01*
X9164524Y-12947019D01*
X9459762Y-12889876D02*
X9364524Y-12889876D01*
X9355000Y-12985114D01*
X9364524Y-12975590D01*
X9383571Y-12966067D01*
X9431190Y-12966067D01*
X9450238Y-12975590D01*
X9459762Y-12985114D01*
X9469286Y-13004162D01*
X9469286Y-13051781D01*
X9459762Y-13070828D01*
X9450238Y-13080352D01*
X9431190Y-13089876D01*
X9383571Y-13089876D01*
X9364524Y-13080352D01*
X9355000Y-13070828D01*
X9545476Y-12889876D02*
X9545476Y-12927971D01*
X9621667Y-12889876D02*
X9621667Y-12927971D01*
X9916905Y-13166067D02*
X9907381Y-13156543D01*
X9888333Y-13127971D01*
X9878810Y-13108924D01*
X9869286Y-13080352D01*
X9859762Y-13032733D01*
X9859762Y-12994638D01*
X9869286Y-12947019D01*
X9878810Y-12918448D01*
X9888333Y-12899400D01*
X9907381Y-12870828D01*
X9916905Y-12861305D01*
X10078810Y-12889876D02*
X10040714Y-12889876D01*
X10021667Y-12899400D01*
X10012143Y-12908924D01*
X9993095Y-12937495D01*
X9983571Y-12975590D01*
X9983571Y-13051781D01*
X9993095Y-13070828D01*
X10002619Y-13080352D01*
X10021667Y-13089876D01*
X10059762Y-13089876D01*
X10078810Y-13080352D01*
X10088333Y-13070828D01*
X10097857Y-13051781D01*
X10097857Y-13004162D01*
X10088333Y-12985114D01*
X10078810Y-12975590D01*
X10059762Y-12966067D01*
X10021667Y-12966067D01*
X10002619Y-12975590D01*
X9993095Y-12985114D01*
X9983571Y-13004162D01*
X10269286Y-12889876D02*
X10231190Y-12889876D01*
X10212143Y-12899400D01*
X10202619Y-12908924D01*
X10183571Y-12937495D01*
X10174048Y-12975590D01*
X10174048Y-13051781D01*
X10183571Y-13070828D01*
X10193095Y-13080352D01*
X10212143Y-13089876D01*
X10250238Y-13089876D01*
X10269286Y-13080352D01*
X10278810Y-13070828D01*
X10288333Y-13051781D01*
X10288333Y-13004162D01*
X10278810Y-12985114D01*
X10269286Y-12975590D01*
X10250238Y-12966067D01*
X10212143Y-12966067D01*
X10193095Y-12975590D01*
X10183571Y-12985114D01*
X10174048Y-13004162D01*
X10526429Y-13089876D02*
X10526429Y-12889876D01*
X10612143Y-13089876D02*
X10612143Y-12985114D01*
X10602619Y-12966067D01*
X10583571Y-12956543D01*
X10555000Y-12956543D01*
X10535952Y-12966067D01*
X10526429Y-12975590D01*
X10735952Y-13089876D02*
X10716905Y-13080352D01*
X10707381Y-13070828D01*
X10697857Y-13051781D01*
X10697857Y-12994638D01*
X10707381Y-12975590D01*
X10716905Y-12966067D01*
X10735952Y-12956543D01*
X10764524Y-12956543D01*
X10783571Y-12966067D01*
X10793095Y-12975590D01*
X10802619Y-12994638D01*
X10802619Y-13051781D01*
X10793095Y-13070828D01*
X10783571Y-13080352D01*
X10764524Y-13089876D01*
X10735952Y-13089876D01*
X10916905Y-13089876D02*
X10897857Y-13080352D01*
X10888333Y-13061305D01*
X10888333Y-12889876D01*
X11069286Y-13080352D02*
X11050238Y-13089876D01*
X11012143Y-13089876D01*
X10993095Y-13080352D01*
X10983571Y-13061305D01*
X10983571Y-12985114D01*
X10993095Y-12966067D01*
X11012143Y-12956543D01*
X11050238Y-12956543D01*
X11069286Y-12966067D01*
X11078810Y-12985114D01*
X11078810Y-13004162D01*
X10983571Y-13023209D01*
X11155000Y-13080352D02*
X11174048Y-13089876D01*
X11212143Y-13089876D01*
X11231190Y-13080352D01*
X11240714Y-13061305D01*
X11240714Y-13051781D01*
X11231190Y-13032733D01*
X11212143Y-13023209D01*
X11183571Y-13023209D01*
X11164524Y-13013686D01*
X11155000Y-12994638D01*
X11155000Y-12985114D01*
X11164524Y-12966067D01*
X11183571Y-12956543D01*
X11212143Y-12956543D01*
X11231190Y-12966067D01*
X11307381Y-13166067D02*
X11316905Y-13156543D01*
X11335952Y-13127971D01*
X11345476Y-13108924D01*
X11355000Y-13080352D01*
X11364524Y-13032733D01*
X11364524Y-12994638D01*
X11355000Y-12947019D01*
X11345476Y-12918448D01*
X11335952Y-12899400D01*
X11316905Y-12870828D01*
X11307381Y-12861305D01*
D14*
X6295000Y-13213400D02*
X6295000Y-13313400D01*
X6245000Y-13263400D02*
X6345000Y-13263400D01*
D11*
X6707381Y-13353876D02*
X6593095Y-13353876D01*
X6650238Y-13353876D02*
X6650238Y-13153876D01*
X6631190Y-13182448D01*
X6612143Y-13201495D01*
X6593095Y-13211019D01*
X6793095Y-13334828D02*
X6802619Y-13344352D01*
X6793095Y-13353876D01*
X6783571Y-13344352D01*
X6793095Y-13334828D01*
X6793095Y-13353876D01*
X6926428Y-13153876D02*
X6945476Y-13153876D01*
X6964524Y-13163400D01*
X6974048Y-13172924D01*
X6983571Y-13191971D01*
X6993095Y-13230067D01*
X6993095Y-13277686D01*
X6983571Y-13315781D01*
X6974048Y-13334828D01*
X6964524Y-13344352D01*
X6945476Y-13353876D01*
X6926428Y-13353876D01*
X6907381Y-13344352D01*
X6897857Y-13334828D01*
X6888333Y-13315781D01*
X6878809Y-13277686D01*
X6878809Y-13230067D01*
X6888333Y-13191971D01*
X6897857Y-13172924D01*
X6907381Y-13163400D01*
X6926428Y-13153876D01*
X7116905Y-13153876D02*
X7135952Y-13153876D01*
X7155000Y-13163400D01*
X7164524Y-13172924D01*
X7174048Y-13191971D01*
X7183571Y-13230067D01*
X7183571Y-13277686D01*
X7174048Y-13315781D01*
X7164524Y-13334828D01*
X7155000Y-13344352D01*
X7135952Y-13353876D01*
X7116905Y-13353876D01*
X7097857Y-13344352D01*
X7088333Y-13334828D01*
X7078809Y-13315781D01*
X7069286Y-13277686D01*
X7069286Y-13230067D01*
X7078809Y-13191971D01*
X7088333Y-13172924D01*
X7097857Y-13163400D01*
X7116905Y-13153876D01*
X7307381Y-13153876D02*
X7326428Y-13153876D01*
X7345476Y-13163400D01*
X7355000Y-13172924D01*
X7364524Y-13191971D01*
X7374048Y-13230067D01*
X7374048Y-13277686D01*
X7364524Y-13315781D01*
X7355000Y-13334828D01*
X7345476Y-13344352D01*
X7326428Y-13353876D01*
X7307381Y-13353876D01*
X7288333Y-13344352D01*
X7278809Y-13334828D01*
X7269286Y-13315781D01*
X7259762Y-13277686D01*
X7259762Y-13230067D01*
X7269286Y-13191971D01*
X7278809Y-13172924D01*
X7288333Y-13163400D01*
X7307381Y-13153876D01*
X7459762Y-13353876D02*
X7459762Y-13220543D01*
X7459762Y-13239590D02*
X7469286Y-13230067D01*
X7488333Y-13220543D01*
X7516905Y-13220543D01*
X7535952Y-13230067D01*
X7545476Y-13249114D01*
X7545476Y-13353876D01*
X7545476Y-13249114D02*
X7555000Y-13230067D01*
X7574048Y-13220543D01*
X7602619Y-13220543D01*
X7621667Y-13230067D01*
X7631190Y-13249114D01*
X7631190Y-13353876D01*
X7726428Y-13353876D02*
X7726428Y-13220543D01*
X7726428Y-13239590D02*
X7735952Y-13230067D01*
X7755000Y-13220543D01*
X7783571Y-13220543D01*
X7802619Y-13230067D01*
X7812143Y-13249114D01*
X7812143Y-13353876D01*
X7812143Y-13249114D02*
X7821667Y-13230067D01*
X7840714Y-13220543D01*
X7869286Y-13220543D01*
X7888333Y-13230067D01*
X7897857Y-13249114D01*
X7897857Y-13353876D01*
X8288333Y-13144352D02*
X8116905Y-13401495D01*
X8545476Y-13153876D02*
X8564524Y-13153876D01*
X8583571Y-13163400D01*
X8593095Y-13172924D01*
X8602619Y-13191971D01*
X8612143Y-13230067D01*
X8612143Y-13277686D01*
X8602619Y-13315781D01*
X8593095Y-13334828D01*
X8583571Y-13344352D01*
X8564524Y-13353876D01*
X8545476Y-13353876D01*
X8526429Y-13344352D01*
X8516905Y-13334828D01*
X8507381Y-13315781D01*
X8497857Y-13277686D01*
X8497857Y-13230067D01*
X8507381Y-13191971D01*
X8516905Y-13172924D01*
X8526429Y-13163400D01*
X8545476Y-13153876D01*
X8697857Y-13334828D02*
X8707381Y-13344352D01*
X8697857Y-13353876D01*
X8688333Y-13344352D01*
X8697857Y-13334828D01*
X8697857Y-13353876D01*
X8831190Y-13153876D02*
X8850238Y-13153876D01*
X8869286Y-13163400D01*
X8878810Y-13172924D01*
X8888333Y-13191971D01*
X8897857Y-13230067D01*
X8897857Y-13277686D01*
X8888333Y-13315781D01*
X8878810Y-13334828D01*
X8869286Y-13344352D01*
X8850238Y-13353876D01*
X8831190Y-13353876D01*
X8812143Y-13344352D01*
X8802619Y-13334828D01*
X8793095Y-13315781D01*
X8783571Y-13277686D01*
X8783571Y-13230067D01*
X8793095Y-13191971D01*
X8802619Y-13172924D01*
X8812143Y-13163400D01*
X8831190Y-13153876D01*
X8964524Y-13153876D02*
X9088333Y-13153876D01*
X9021667Y-13230067D01*
X9050238Y-13230067D01*
X9069286Y-13239590D01*
X9078810Y-13249114D01*
X9088333Y-13268162D01*
X9088333Y-13315781D01*
X9078810Y-13334828D01*
X9069286Y-13344352D01*
X9050238Y-13353876D01*
X8993095Y-13353876D01*
X8974048Y-13344352D01*
X8964524Y-13334828D01*
X9183571Y-13353876D02*
X9221667Y-13353876D01*
X9240714Y-13344352D01*
X9250238Y-13334828D01*
X9269286Y-13306257D01*
X9278810Y-13268162D01*
X9278810Y-13191971D01*
X9269286Y-13172924D01*
X9259762Y-13163400D01*
X9240714Y-13153876D01*
X9202619Y-13153876D01*
X9183571Y-13163400D01*
X9174048Y-13172924D01*
X9164524Y-13191971D01*
X9164524Y-13239590D01*
X9174048Y-13258638D01*
X9183571Y-13268162D01*
X9202619Y-13277686D01*
X9240714Y-13277686D01*
X9259762Y-13268162D01*
X9269286Y-13258638D01*
X9278810Y-13239590D01*
X9450238Y-13220543D02*
X9450238Y-13353876D01*
X9402619Y-13144352D02*
X9355000Y-13287209D01*
X9478810Y-13287209D01*
X9545476Y-13153876D02*
X9545476Y-13191971D01*
X9621667Y-13153876D02*
X9621667Y-13191971D01*
X9916905Y-13430067D02*
X9907381Y-13420543D01*
X9888333Y-13391971D01*
X9878810Y-13372924D01*
X9869286Y-13344352D01*
X9859762Y-13296733D01*
X9859762Y-13258638D01*
X9869286Y-13211019D01*
X9878810Y-13182448D01*
X9888333Y-13163400D01*
X9907381Y-13134828D01*
X9916905Y-13125305D01*
X10097857Y-13353876D02*
X9983571Y-13353876D01*
X10040714Y-13353876D02*
X10040714Y-13153876D01*
X10021667Y-13182448D01*
X10002619Y-13201495D01*
X9983571Y-13211019D01*
X10212143Y-13239590D02*
X10193095Y-13230067D01*
X10183571Y-13220543D01*
X10174048Y-13201495D01*
X10174048Y-13191971D01*
X10183571Y-13172924D01*
X10193095Y-13163400D01*
X10212143Y-13153876D01*
X10250238Y-13153876D01*
X10269286Y-13163400D01*
X10278810Y-13172924D01*
X10288333Y-13191971D01*
X10288333Y-13201495D01*
X10278810Y-13220543D01*
X10269286Y-13230067D01*
X10250238Y-13239590D01*
X10212143Y-13239590D01*
X10193095Y-13249114D01*
X10183571Y-13258638D01*
X10174048Y-13277686D01*
X10174048Y-13315781D01*
X10183571Y-13334828D01*
X10193095Y-13344352D01*
X10212143Y-13353876D01*
X10250238Y-13353876D01*
X10269286Y-13344352D01*
X10278810Y-13334828D01*
X10288333Y-13315781D01*
X10288333Y-13277686D01*
X10278810Y-13258638D01*
X10269286Y-13249114D01*
X10250238Y-13239590D01*
X10526429Y-13353876D02*
X10526429Y-13153876D01*
X10612143Y-13353876D02*
X10612143Y-13249114D01*
X10602619Y-13230067D01*
X10583571Y-13220543D01*
X10555000Y-13220543D01*
X10535952Y-13230067D01*
X10526429Y-13239590D01*
X10735952Y-13353876D02*
X10716905Y-13344352D01*
X10707381Y-13334828D01*
X10697857Y-13315781D01*
X10697857Y-13258638D01*
X10707381Y-13239590D01*
X10716905Y-13230067D01*
X10735952Y-13220543D01*
X10764524Y-13220543D01*
X10783571Y-13230067D01*
X10793095Y-13239590D01*
X10802619Y-13258638D01*
X10802619Y-13315781D01*
X10793095Y-13334828D01*
X10783571Y-13344352D01*
X10764524Y-13353876D01*
X10735952Y-13353876D01*
X10916905Y-13353876D02*
X10897857Y-13344352D01*
X10888333Y-13325305D01*
X10888333Y-13153876D01*
X11069286Y-13344352D02*
X11050238Y-13353876D01*
X11012143Y-13353876D01*
X10993095Y-13344352D01*
X10983571Y-13325305D01*
X10983571Y-13249114D01*
X10993095Y-13230067D01*
X11012143Y-13220543D01*
X11050238Y-13220543D01*
X11069286Y-13230067D01*
X11078810Y-13249114D01*
X11078810Y-13268162D01*
X10983571Y-13287209D01*
X11155000Y-13344352D02*
X11174048Y-13353876D01*
X11212143Y-13353876D01*
X11231190Y-13344352D01*
X11240714Y-13325305D01*
X11240714Y-13315781D01*
X11231190Y-13296733D01*
X11212143Y-13287209D01*
X11183571Y-13287209D01*
X11164524Y-13277686D01*
X11155000Y-13258638D01*
X11155000Y-13249114D01*
X11164524Y-13230067D01*
X11183571Y-13220543D01*
X11212143Y-13220543D01*
X11231190Y-13230067D01*
X11478809Y-13277686D02*
X11631190Y-13277686D01*
X11555000Y-13353876D02*
X11555000Y-13201495D01*
X11859762Y-13153876D02*
X11983571Y-13153876D01*
X11916905Y-13230067D01*
X11945476Y-13230067D01*
X11964524Y-13239590D01*
X11974048Y-13249114D01*
X11983571Y-13268162D01*
X11983571Y-13315781D01*
X11974048Y-13334828D01*
X11964524Y-13344352D01*
X11945476Y-13353876D01*
X11888333Y-13353876D01*
X11869286Y-13344352D01*
X11859762Y-13334828D01*
X12212143Y-13344352D02*
X12231190Y-13353876D01*
X12269286Y-13353876D01*
X12288333Y-13344352D01*
X12297857Y-13325305D01*
X12297857Y-13315781D01*
X12288333Y-13296733D01*
X12269286Y-13287209D01*
X12240714Y-13287209D01*
X12221667Y-13277686D01*
X12212143Y-13258638D01*
X12212143Y-13249114D01*
X12221667Y-13230067D01*
X12240714Y-13220543D01*
X12269286Y-13220543D01*
X12288333Y-13230067D01*
X12412143Y-13353876D02*
X12393095Y-13344352D01*
X12383571Y-13325305D01*
X12383571Y-13153876D01*
X12516905Y-13353876D02*
X12497857Y-13344352D01*
X12488333Y-13334828D01*
X12478809Y-13315781D01*
X12478809Y-13258638D01*
X12488333Y-13239590D01*
X12497857Y-13230067D01*
X12516905Y-13220543D01*
X12545476Y-13220543D01*
X12564524Y-13230067D01*
X12574048Y-13239590D01*
X12583571Y-13258638D01*
X12583571Y-13315781D01*
X12574048Y-13334828D01*
X12564524Y-13344352D01*
X12545476Y-13353876D01*
X12516905Y-13353876D01*
X12640714Y-13220543D02*
X12716905Y-13220543D01*
X12669286Y-13153876D02*
X12669286Y-13325305D01*
X12678809Y-13344352D01*
X12697857Y-13353876D01*
X12716905Y-13353876D01*
X12774048Y-13344352D02*
X12793095Y-13353876D01*
X12831190Y-13353876D01*
X12850238Y-13344352D01*
X12859762Y-13325305D01*
X12859762Y-13315781D01*
X12850238Y-13296733D01*
X12831190Y-13287209D01*
X12802619Y-13287209D01*
X12783571Y-13277686D01*
X12774048Y-13258638D01*
X12774048Y-13249114D01*
X12783571Y-13230067D01*
X12802619Y-13220543D01*
X12831190Y-13220543D01*
X12850238Y-13230067D01*
X12926428Y-13430067D02*
X12935952Y-13420543D01*
X12955000Y-13391971D01*
X12964524Y-13372924D01*
X12974048Y-13344352D01*
X12983571Y-13296733D01*
X12983571Y-13258638D01*
X12974048Y-13211019D01*
X12964524Y-13182448D01*
X12955000Y-13163400D01*
X12935952Y-13134828D01*
X12926428Y-13125305D01*
D15*
X6328891Y-13566291D02*
X6328891Y-13488509D01*
X6251109Y-13488509D01*
X6251109Y-13566291D01*
X6328891Y-13566291D01*
D11*
X6707381Y-13617876D02*
X6593095Y-13617876D01*
X6650238Y-13617876D02*
X6650238Y-13417876D01*
X6631190Y-13446448D01*
X6612143Y-13465495D01*
X6593095Y-13475019D01*
X6793095Y-13598828D02*
X6802619Y-13608352D01*
X6793095Y-13617876D01*
X6783571Y-13608352D01*
X6793095Y-13598828D01*
X6793095Y-13617876D01*
X6993095Y-13617876D02*
X6878809Y-13617876D01*
X6935952Y-13617876D02*
X6935952Y-13417876D01*
X6916905Y-13446448D01*
X6897857Y-13465495D01*
X6878809Y-13475019D01*
X7116905Y-13417876D02*
X7135952Y-13417876D01*
X7155000Y-13427400D01*
X7164524Y-13436924D01*
X7174048Y-13455971D01*
X7183571Y-13494067D01*
X7183571Y-13541686D01*
X7174048Y-13579781D01*
X7164524Y-13598828D01*
X7155000Y-13608352D01*
X7135952Y-13617876D01*
X7116905Y-13617876D01*
X7097857Y-13608352D01*
X7088333Y-13598828D01*
X7078809Y-13579781D01*
X7069286Y-13541686D01*
X7069286Y-13494067D01*
X7078809Y-13455971D01*
X7088333Y-13436924D01*
X7097857Y-13427400D01*
X7116905Y-13417876D01*
X7307381Y-13417876D02*
X7326428Y-13417876D01*
X7345476Y-13427400D01*
X7355000Y-13436924D01*
X7364524Y-13455971D01*
X7374048Y-13494067D01*
X7374048Y-13541686D01*
X7364524Y-13579781D01*
X7355000Y-13598828D01*
X7345476Y-13608352D01*
X7326428Y-13617876D01*
X7307381Y-13617876D01*
X7288333Y-13608352D01*
X7278809Y-13598828D01*
X7269286Y-13579781D01*
X7259762Y-13541686D01*
X7259762Y-13494067D01*
X7269286Y-13455971D01*
X7278809Y-13436924D01*
X7288333Y-13427400D01*
X7307381Y-13417876D01*
X7459762Y-13617876D02*
X7459762Y-13484543D01*
X7459762Y-13503590D02*
X7469286Y-13494067D01*
X7488333Y-13484543D01*
X7516905Y-13484543D01*
X7535952Y-13494067D01*
X7545476Y-13513114D01*
X7545476Y-13617876D01*
X7545476Y-13513114D02*
X7555000Y-13494067D01*
X7574048Y-13484543D01*
X7602619Y-13484543D01*
X7621667Y-13494067D01*
X7631190Y-13513114D01*
X7631190Y-13617876D01*
X7726428Y-13617876D02*
X7726428Y-13484543D01*
X7726428Y-13503590D02*
X7735952Y-13494067D01*
X7755000Y-13484543D01*
X7783571Y-13484543D01*
X7802619Y-13494067D01*
X7812143Y-13513114D01*
X7812143Y-13617876D01*
X7812143Y-13513114D02*
X7821667Y-13494067D01*
X7840714Y-13484543D01*
X7869286Y-13484543D01*
X7888333Y-13494067D01*
X7897857Y-13513114D01*
X7897857Y-13617876D01*
X8288333Y-13408352D02*
X8116905Y-13665495D01*
X8545476Y-13417876D02*
X8564524Y-13417876D01*
X8583571Y-13427400D01*
X8593095Y-13436924D01*
X8602619Y-13455971D01*
X8612143Y-13494067D01*
X8612143Y-13541686D01*
X8602619Y-13579781D01*
X8593095Y-13598828D01*
X8583571Y-13608352D01*
X8564524Y-13617876D01*
X8545476Y-13617876D01*
X8526429Y-13608352D01*
X8516905Y-13598828D01*
X8507381Y-13579781D01*
X8497857Y-13541686D01*
X8497857Y-13494067D01*
X8507381Y-13455971D01*
X8516905Y-13436924D01*
X8526429Y-13427400D01*
X8545476Y-13417876D01*
X8697857Y-13598828D02*
X8707381Y-13608352D01*
X8697857Y-13617876D01*
X8688333Y-13608352D01*
X8697857Y-13598828D01*
X8697857Y-13617876D01*
X8831190Y-13417876D02*
X8850238Y-13417876D01*
X8869286Y-13427400D01*
X8878810Y-13436924D01*
X8888333Y-13455971D01*
X8897857Y-13494067D01*
X8897857Y-13541686D01*
X8888333Y-13579781D01*
X8878810Y-13598828D01*
X8869286Y-13608352D01*
X8850238Y-13617876D01*
X8831190Y-13617876D01*
X8812143Y-13608352D01*
X8802619Y-13598828D01*
X8793095Y-13579781D01*
X8783571Y-13541686D01*
X8783571Y-13494067D01*
X8793095Y-13455971D01*
X8802619Y-13436924D01*
X8812143Y-13427400D01*
X8831190Y-13417876D01*
X9069286Y-13484543D02*
X9069286Y-13617876D01*
X9021667Y-13408352D02*
X8974048Y-13551209D01*
X9097857Y-13551209D01*
X9155000Y-13417876D02*
X9278810Y-13417876D01*
X9212143Y-13494067D01*
X9240714Y-13494067D01*
X9259762Y-13503590D01*
X9269286Y-13513114D01*
X9278810Y-13532162D01*
X9278810Y-13579781D01*
X9269286Y-13598828D01*
X9259762Y-13608352D01*
X9240714Y-13617876D01*
X9183571Y-13617876D01*
X9164524Y-13608352D01*
X9155000Y-13598828D01*
X9345476Y-13417876D02*
X9469286Y-13417876D01*
X9402619Y-13494067D01*
X9431190Y-13494067D01*
X9450238Y-13503590D01*
X9459762Y-13513114D01*
X9469286Y-13532162D01*
X9469286Y-13579781D01*
X9459762Y-13598828D01*
X9450238Y-13608352D01*
X9431190Y-13617876D01*
X9374048Y-13617876D01*
X9355000Y-13608352D01*
X9345476Y-13598828D01*
X9545476Y-13417876D02*
X9545476Y-13455971D01*
X9621667Y-13417876D02*
X9621667Y-13455971D01*
X9916905Y-13694067D02*
X9907381Y-13684543D01*
X9888333Y-13655971D01*
X9878810Y-13636924D01*
X9869286Y-13608352D01*
X9859762Y-13560733D01*
X9859762Y-13522638D01*
X9869286Y-13475019D01*
X9878810Y-13446448D01*
X9888333Y-13427400D01*
X9907381Y-13398828D01*
X9916905Y-13389305D01*
X9974048Y-13417876D02*
X10097857Y-13417876D01*
X10031190Y-13494067D01*
X10059762Y-13494067D01*
X10078810Y-13503590D01*
X10088333Y-13513114D01*
X10097857Y-13532162D01*
X10097857Y-13579781D01*
X10088333Y-13598828D01*
X10078810Y-13608352D01*
X10059762Y-13617876D01*
X10002619Y-13617876D01*
X9983571Y-13608352D01*
X9974048Y-13598828D01*
X10335952Y-13617876D02*
X10335952Y-13417876D01*
X10421667Y-13617876D02*
X10421667Y-13513114D01*
X10412143Y-13494067D01*
X10393095Y-13484543D01*
X10364524Y-13484543D01*
X10345476Y-13494067D01*
X10335952Y-13503590D01*
X10545476Y-13617876D02*
X10526429Y-13608352D01*
X10516905Y-13598828D01*
X10507381Y-13579781D01*
X10507381Y-13522638D01*
X10516905Y-13503590D01*
X10526429Y-13494067D01*
X10545476Y-13484543D01*
X10574048Y-13484543D01*
X10593095Y-13494067D01*
X10602619Y-13503590D01*
X10612143Y-13522638D01*
X10612143Y-13579781D01*
X10602619Y-13598828D01*
X10593095Y-13608352D01*
X10574048Y-13617876D01*
X10545476Y-13617876D01*
X10726429Y-13617876D02*
X10707381Y-13608352D01*
X10697857Y-13589305D01*
X10697857Y-13417876D01*
X10878810Y-13608352D02*
X10859762Y-13617876D01*
X10821667Y-13617876D01*
X10802619Y-13608352D01*
X10793095Y-13589305D01*
X10793095Y-13513114D01*
X10802619Y-13494067D01*
X10821667Y-13484543D01*
X10859762Y-13484543D01*
X10878810Y-13494067D01*
X10888333Y-13513114D01*
X10888333Y-13532162D01*
X10793095Y-13551209D01*
X10964524Y-13608352D02*
X10983571Y-13617876D01*
X11021667Y-13617876D01*
X11040714Y-13608352D01*
X11050238Y-13589305D01*
X11050238Y-13579781D01*
X11040714Y-13560733D01*
X11021667Y-13551209D01*
X10993095Y-13551209D01*
X10974048Y-13541686D01*
X10964524Y-13522638D01*
X10964524Y-13513114D01*
X10974048Y-13494067D01*
X10993095Y-13484543D01*
X11021667Y-13484543D01*
X11040714Y-13494067D01*
X11116905Y-13694067D02*
X11126429Y-13684543D01*
X11145476Y-13655971D01*
X11155000Y-13636924D01*
X11164524Y-13608352D01*
X11174048Y-13560733D01*
X11174048Y-13522638D01*
X11164524Y-13475019D01*
X11155000Y-13446448D01*
X11145476Y-13427400D01*
X11126429Y-13398828D01*
X11116905Y-13389305D01*
D16*
X6269000Y-13867400D02*
X6345000Y-13791400D01*
X6269000Y-13715400D01*
X6193000Y-13791400D01*
X6269000Y-13867400D01*
D11*
X6707381Y-13881876D02*
X6593095Y-13881876D01*
X6650238Y-13881876D02*
X6650238Y-13681876D01*
X6631190Y-13710448D01*
X6612143Y-13729495D01*
X6593095Y-13739019D01*
X6793095Y-13862828D02*
X6802619Y-13872352D01*
X6793095Y-13881876D01*
X6783571Y-13872352D01*
X6793095Y-13862828D01*
X6793095Y-13881876D01*
X6983571Y-13681876D02*
X6888333Y-13681876D01*
X6878809Y-13777114D01*
X6888333Y-13767590D01*
X6907381Y-13758067D01*
X6955000Y-13758067D01*
X6974048Y-13767590D01*
X6983571Y-13777114D01*
X6993095Y-13796162D01*
X6993095Y-13843781D01*
X6983571Y-13862828D01*
X6974048Y-13872352D01*
X6955000Y-13881876D01*
X6907381Y-13881876D01*
X6888333Y-13872352D01*
X6878809Y-13862828D01*
X7069286Y-13700924D02*
X7078809Y-13691400D01*
X7097857Y-13681876D01*
X7145476Y-13681876D01*
X7164524Y-13691400D01*
X7174048Y-13700924D01*
X7183571Y-13719971D01*
X7183571Y-13739019D01*
X7174048Y-13767590D01*
X7059762Y-13881876D01*
X7183571Y-13881876D01*
X7307381Y-13681876D02*
X7326428Y-13681876D01*
X7345476Y-13691400D01*
X7355000Y-13700924D01*
X7364524Y-13719971D01*
X7374048Y-13758067D01*
X7374048Y-13805686D01*
X7364524Y-13843781D01*
X7355000Y-13862828D01*
X7345476Y-13872352D01*
X7326428Y-13881876D01*
X7307381Y-13881876D01*
X7288333Y-13872352D01*
X7278809Y-13862828D01*
X7269286Y-13843781D01*
X7259762Y-13805686D01*
X7259762Y-13758067D01*
X7269286Y-13719971D01*
X7278809Y-13700924D01*
X7288333Y-13691400D01*
X7307381Y-13681876D01*
X7459762Y-13881876D02*
X7459762Y-13748543D01*
X7459762Y-13767590D02*
X7469286Y-13758067D01*
X7488333Y-13748543D01*
X7516905Y-13748543D01*
X7535952Y-13758067D01*
X7545476Y-13777114D01*
X7545476Y-13881876D01*
X7545476Y-13777114D02*
X7555000Y-13758067D01*
X7574048Y-13748543D01*
X7602619Y-13748543D01*
X7621667Y-13758067D01*
X7631190Y-13777114D01*
X7631190Y-13881876D01*
X7726428Y-13881876D02*
X7726428Y-13748543D01*
X7726428Y-13767590D02*
X7735952Y-13758067D01*
X7755000Y-13748543D01*
X7783571Y-13748543D01*
X7802619Y-13758067D01*
X7812143Y-13777114D01*
X7812143Y-13881876D01*
X7812143Y-13777114D02*
X7821667Y-13758067D01*
X7840714Y-13748543D01*
X7869286Y-13748543D01*
X7888333Y-13758067D01*
X7897857Y-13777114D01*
X7897857Y-13881876D01*
X8288333Y-13672352D02*
X8116905Y-13929495D01*
X8545476Y-13681876D02*
X8564524Y-13681876D01*
X8583571Y-13691400D01*
X8593095Y-13700924D01*
X8602619Y-13719971D01*
X8612143Y-13758067D01*
X8612143Y-13805686D01*
X8602619Y-13843781D01*
X8593095Y-13862828D01*
X8583571Y-13872352D01*
X8564524Y-13881876D01*
X8545476Y-13881876D01*
X8526429Y-13872352D01*
X8516905Y-13862828D01*
X8507381Y-13843781D01*
X8497857Y-13805686D01*
X8497857Y-13758067D01*
X8507381Y-13719971D01*
X8516905Y-13700924D01*
X8526429Y-13691400D01*
X8545476Y-13681876D01*
X8697857Y-13862828D02*
X8707381Y-13872352D01*
X8697857Y-13881876D01*
X8688333Y-13872352D01*
X8697857Y-13862828D01*
X8697857Y-13881876D01*
X8831190Y-13681876D02*
X8850238Y-13681876D01*
X8869286Y-13691400D01*
X8878810Y-13700924D01*
X8888333Y-13719971D01*
X8897857Y-13758067D01*
X8897857Y-13805686D01*
X8888333Y-13843781D01*
X8878810Y-13862828D01*
X8869286Y-13872352D01*
X8850238Y-13881876D01*
X8831190Y-13881876D01*
X8812143Y-13872352D01*
X8802619Y-13862828D01*
X8793095Y-13843781D01*
X8783571Y-13805686D01*
X8783571Y-13758067D01*
X8793095Y-13719971D01*
X8802619Y-13700924D01*
X8812143Y-13691400D01*
X8831190Y-13681876D01*
X9078810Y-13681876D02*
X8983571Y-13681876D01*
X8974048Y-13777114D01*
X8983571Y-13767590D01*
X9002619Y-13758067D01*
X9050238Y-13758067D01*
X9069286Y-13767590D01*
X9078810Y-13777114D01*
X9088333Y-13796162D01*
X9088333Y-13843781D01*
X9078810Y-13862828D01*
X9069286Y-13872352D01*
X9050238Y-13881876D01*
X9002619Y-13881876D01*
X8983571Y-13872352D01*
X8974048Y-13862828D01*
X9183571Y-13881876D02*
X9221667Y-13881876D01*
X9240714Y-13872352D01*
X9250238Y-13862828D01*
X9269286Y-13834257D01*
X9278810Y-13796162D01*
X9278810Y-13719971D01*
X9269286Y-13700924D01*
X9259762Y-13691400D01*
X9240714Y-13681876D01*
X9202619Y-13681876D01*
X9183571Y-13691400D01*
X9174048Y-13700924D01*
X9164524Y-13719971D01*
X9164524Y-13767590D01*
X9174048Y-13786638D01*
X9183571Y-13796162D01*
X9202619Y-13805686D01*
X9240714Y-13805686D01*
X9259762Y-13796162D01*
X9269286Y-13786638D01*
X9278810Y-13767590D01*
X9393095Y-13767590D02*
X9374048Y-13758067D01*
X9364524Y-13748543D01*
X9355000Y-13729495D01*
X9355000Y-13719971D01*
X9364524Y-13700924D01*
X9374048Y-13691400D01*
X9393095Y-13681876D01*
X9431190Y-13681876D01*
X9450238Y-13691400D01*
X9459762Y-13700924D01*
X9469286Y-13719971D01*
X9469286Y-13729495D01*
X9459762Y-13748543D01*
X9450238Y-13758067D01*
X9431190Y-13767590D01*
X9393095Y-13767590D01*
X9374048Y-13777114D01*
X9364524Y-13786638D01*
X9355000Y-13805686D01*
X9355000Y-13843781D01*
X9364524Y-13862828D01*
X9374048Y-13872352D01*
X9393095Y-13881876D01*
X9431190Y-13881876D01*
X9450238Y-13872352D01*
X9459762Y-13862828D01*
X9469286Y-13843781D01*
X9469286Y-13805686D01*
X9459762Y-13786638D01*
X9450238Y-13777114D01*
X9431190Y-13767590D01*
X9545476Y-13681876D02*
X9545476Y-13719971D01*
X9621667Y-13681876D02*
X9621667Y-13719971D01*
X9916905Y-13958067D02*
X9907381Y-13948543D01*
X9888333Y-13919971D01*
X9878810Y-13900924D01*
X9869286Y-13872352D01*
X9859762Y-13824733D01*
X9859762Y-13786638D01*
X9869286Y-13739019D01*
X9878810Y-13710448D01*
X9888333Y-13691400D01*
X9907381Y-13662828D01*
X9916905Y-13653305D01*
X10021667Y-13767590D02*
X10002619Y-13758067D01*
X9993095Y-13748543D01*
X9983571Y-13729495D01*
X9983571Y-13719971D01*
X9993095Y-13700924D01*
X10002619Y-13691400D01*
X10021667Y-13681876D01*
X10059762Y-13681876D01*
X10078810Y-13691400D01*
X10088333Y-13700924D01*
X10097857Y-13719971D01*
X10097857Y-13729495D01*
X10088333Y-13748543D01*
X10078810Y-13758067D01*
X10059762Y-13767590D01*
X10021667Y-13767590D01*
X10002619Y-13777114D01*
X9993095Y-13786638D01*
X9983571Y-13805686D01*
X9983571Y-13843781D01*
X9993095Y-13862828D01*
X10002619Y-13872352D01*
X10021667Y-13881876D01*
X10059762Y-13881876D01*
X10078810Y-13872352D01*
X10088333Y-13862828D01*
X10097857Y-13843781D01*
X10097857Y-13805686D01*
X10088333Y-13786638D01*
X10078810Y-13777114D01*
X10059762Y-13767590D01*
X10335952Y-13881876D02*
X10335952Y-13681876D01*
X10421667Y-13881876D02*
X10421667Y-13777114D01*
X10412143Y-13758067D01*
X10393095Y-13748543D01*
X10364524Y-13748543D01*
X10345476Y-13758067D01*
X10335952Y-13767590D01*
X10545476Y-13881876D02*
X10526429Y-13872352D01*
X10516905Y-13862828D01*
X10507381Y-13843781D01*
X10507381Y-13786638D01*
X10516905Y-13767590D01*
X10526429Y-13758067D01*
X10545476Y-13748543D01*
X10574048Y-13748543D01*
X10593095Y-13758067D01*
X10602619Y-13767590D01*
X10612143Y-13786638D01*
X10612143Y-13843781D01*
X10602619Y-13862828D01*
X10593095Y-13872352D01*
X10574048Y-13881876D01*
X10545476Y-13881876D01*
X10726429Y-13881876D02*
X10707381Y-13872352D01*
X10697857Y-13853305D01*
X10697857Y-13681876D01*
X10878810Y-13872352D02*
X10859762Y-13881876D01*
X10821667Y-13881876D01*
X10802619Y-13872352D01*
X10793095Y-13853305D01*
X10793095Y-13777114D01*
X10802619Y-13758067D01*
X10821667Y-13748543D01*
X10859762Y-13748543D01*
X10878810Y-13758067D01*
X10888333Y-13777114D01*
X10888333Y-13796162D01*
X10793095Y-13815209D01*
X10964524Y-13872352D02*
X10983571Y-13881876D01*
X11021667Y-13881876D01*
X11040714Y-13872352D01*
X11050238Y-13853305D01*
X11050238Y-13843781D01*
X11040714Y-13824733D01*
X11021667Y-13815209D01*
X10993095Y-13815209D01*
X10974048Y-13805686D01*
X10964524Y-13786638D01*
X10964524Y-13777114D01*
X10974048Y-13758067D01*
X10993095Y-13748543D01*
X11021667Y-13748543D01*
X11040714Y-13758067D01*
X11116905Y-13958067D02*
X11126429Y-13948543D01*
X11145476Y-13919971D01*
X11155000Y-13900924D01*
X11164524Y-13872352D01*
X11174048Y-13824733D01*
X11174048Y-13786638D01*
X11164524Y-13739019D01*
X11155000Y-13710448D01*
X11145476Y-13691400D01*
X11126429Y-13662828D01*
X11116905Y-13653305D01*
M02*
