M48
; DRILL file {KiCad (6.0.2-0)} date 2022 August 15, Monday 15:04:23
; FORMAT={-:-/ absolute / metric / decimal}
; #@! TF.CreationDate,2022-08-15T15:04:23+01:00
; #@! TF.GenerationSoftware,Kicad,Pcbnew,(6.0.2-0)
; #@! TF.FileFunction,Plated,1,2,PTH
FMAT,2
METRIC
; #@! TA.AperFunction,Plated,PTH,ComponentDrill
T1C0.600
; #@! TA.AperFunction,Plated,PTH,ComponentDrill
T2C0.800
; #@! TA.AperFunction,Plated,PTH,ComponentDrill
T3C1.000
; #@! TA.AperFunction,Plated,PTH,ComponentDrill
T4C1.100
; #@! TA.AperFunction,Plated,PTH,ComponentDrill
T5C1.520
%
G90
G05
T1
X91.102Y-58.42
X91.102Y-81.915
X93.102Y-58.42
X93.102Y-81.915
X121.582Y-46.355
X123.582Y-46.355
T2
X67.838Y-75.184
X67.96Y-54.6
X67.96Y-62.22
X67.96Y-78.095
X67.96Y-85.715
X67.965Y-51.562
X70.338Y-75.184
X70.465Y-51.562
X70.5Y-54.6
X70.5Y-62.22
X70.5Y-78.095
X70.5Y-85.715
X73.04Y-54.6
X73.04Y-62.22
X73.04Y-78.095
X73.04Y-85.715
X75.58Y-54.6
X75.58Y-62.22
X75.58Y-78.095
X75.58Y-85.715
X77.978Y-67.31
X77.978Y-72.39
X78.12Y-54.6
X78.12Y-62.22
X78.12Y-78.095
X78.12Y-85.715
X78.486Y-90.932
X78.486Y-96.012
X80.66Y-54.6
X80.66Y-62.22
X80.66Y-78.095
X80.66Y-85.715
X83.2Y-54.6
X83.2Y-62.22
X83.2Y-78.095
X83.2Y-85.715
X85.598Y-67.31
X85.598Y-72.39
X85.74Y-54.6
X85.74Y-62.22
X85.74Y-78.095
X85.74Y-85.715
X86.106Y-90.932
X86.106Y-96.012
X91.694Y-90.932
X99.314Y-90.932
X106.949Y-87.112
X106.949Y-94.732
X106.994Y-82.931
X109.489Y-87.112
X109.489Y-94.732
X109.494Y-82.931
X112.029Y-87.112
X112.029Y-94.732
X114.569Y-87.112
X114.569Y-94.732
X117.109Y-87.112
X117.109Y-94.732
X119.649Y-87.112
X119.649Y-94.732
X120.269Y-82.042
X122.189Y-87.112
X122.189Y-94.732
X124.729Y-87.112
X124.729Y-94.732
X127.889Y-82.042
T3
X93.98Y-100.584
X96.52Y-100.584
X106.045Y-52.22
X106.045Y-75.08
X108.585Y-52.22
X108.585Y-75.08
X111.125Y-52.22
X111.125Y-75.08
X113.665Y-52.22
X113.665Y-75.08
X116.205Y-52.22
X116.205Y-75.08
X118.745Y-52.22
X118.745Y-75.08
X121.285Y-52.22
X121.285Y-75.08
X123.825Y-52.22
X123.825Y-75.08
T4
X114.808Y-98.974
X117.348Y-98.974
X119.888Y-98.974
T5
X67.564Y-115.824
X72.644Y-115.824
X79.248Y-115.824
X84.328Y-115.824
X90.932Y-115.824
X96.012Y-115.824
X102.616Y-115.824
X107.696Y-115.824
T3
X128.344Y-106.776G85X130.344Y-106.776
G05
X128.344Y-112.776G85X130.344Y-112.776
G05
X134.044Y-110.776G85X134.044Y-108.776
G05
T0
M30
