%TF.GenerationSoftware,KiCad,Pcbnew,(6.0.2-0)*%
%TF.CreationDate,2022-08-15T15:03:28+01:00*%
%TF.ProjectId,esp8266_sprinkler_controller,65737038-3236-4365-9f73-7072696e6b6c,rev?*%
%TF.SameCoordinates,Original*%
%TF.FileFunction,Soldermask,Bot*%
%TF.FilePolarity,Negative*%
%FSLAX46Y46*%
G04 Gerber Fmt 4.6, Leading zero omitted, Abs format (unit mm)*
G04 Created by KiCad (PCBNEW (6.0.2-0)) date 2022-08-15 15:03:28*
%MOMM*%
%LPD*%
G01*
G04 APERTURE LIST*
G04 Aperture macros list*
%AMRoundRect*
0 Rectangle with rounded corners*
0 $1 Rounding radius*
0 $2 $3 $4 $5 $6 $7 $8 $9 X,Y pos of 4 corners*
0 Add a 4 corners polygon primitive as box body*
4,1,4,$2,$3,$4,$5,$6,$7,$8,$9,$2,$3,0*
0 Add four circle primitives for the rounded corners*
1,1,$1+$1,$2,$3*
1,1,$1+$1,$4,$5*
1,1,$1+$1,$6,$7*
1,1,$1+$1,$8,$9*
0 Add four rect primitives between the rounded corners*
20,1,$1+$1,$2,$3,$4,$5,0*
20,1,$1+$1,$4,$5,$6,$7,0*
20,1,$1+$1,$6,$7,$8,$9,0*
20,1,$1+$1,$8,$9,$2,$3,0*%
G04 Aperture macros list end*
%ADD10C,3.500000*%
%ADD11C,1.600000*%
%ADD12O,1.600000X1.600000*%
%ADD13R,1.600000X1.600000*%
%ADD14R,3.000000X3.000000*%
%ADD15C,3.000000*%
%ADD16R,1.200000X1.200000*%
%ADD17C,1.200000*%
%ADD18R,2.000000X2.000000*%
%ADD19O,1.600000X2.000000*%
%ADD20O,3.500000X3.500000*%
%ADD21R,1.905000X2.000000*%
%ADD22O,1.905000X2.000000*%
%ADD23R,3.500000X3.500000*%
%ADD24RoundRect,0.750000X1.000000X-0.750000X1.000000X0.750000X-1.000000X0.750000X-1.000000X-0.750000X0*%
%ADD25RoundRect,0.875000X0.875000X-0.875000X0.875000X0.875000X-0.875000X0.875000X-0.875000X-0.875000X0*%
%ADD26R,1.700000X1.700000*%
%ADD27O,1.700000X1.700000*%
G04 APERTURE END LIST*
D10*
%TO.C,REF\u002A\u002A*%
X68000000Y-45000000D03*
%TD*%
%TO.C,REF\u002A\u002A*%
X68000000Y-99000000D03*
%TD*%
%TO.C,REF\u002A\u002A*%
X132000000Y-99000000D03*
%TD*%
%TO.C,REF\u002A\u002A*%
X132000000Y-45000000D03*
%TD*%
D11*
%TO.C,R3*%
X78486000Y-90932000D03*
D12*
X86106000Y-90932000D03*
%TD*%
D13*
%TO.C,U4*%
X67960000Y-85715000D03*
D12*
X70500000Y-85715000D03*
X73040000Y-85715000D03*
X75580000Y-85715000D03*
X78120000Y-85715000D03*
X80660000Y-85715000D03*
X83200000Y-85715000D03*
X85740000Y-85715000D03*
X85740000Y-78095000D03*
X83200000Y-78095000D03*
X80660000Y-78095000D03*
X78120000Y-78095000D03*
X75580000Y-78095000D03*
X73040000Y-78095000D03*
X70500000Y-78095000D03*
X67960000Y-78095000D03*
%TD*%
D14*
%TO.C,J2*%
X67564000Y-115824000D03*
D15*
X72644000Y-115824000D03*
%TD*%
D13*
%TO.C,U5*%
X67960000Y-62220000D03*
D12*
X70500000Y-62220000D03*
X73040000Y-62220000D03*
X75580000Y-62220000D03*
X78120000Y-62220000D03*
X80660000Y-62220000D03*
X83200000Y-62220000D03*
X85740000Y-62220000D03*
X85740000Y-54600000D03*
X83200000Y-54600000D03*
X80660000Y-54600000D03*
X78120000Y-54600000D03*
X75580000Y-54600000D03*
X73040000Y-54600000D03*
X70500000Y-54600000D03*
X67960000Y-54600000D03*
%TD*%
D16*
%TO.C,C4*%
X91102400Y-81915000D03*
D17*
X93102400Y-81915000D03*
%TD*%
D11*
%TO.C,R1*%
X91694000Y-90932000D03*
D12*
X99314000Y-90932000D03*
%TD*%
D18*
%TO.C,U2*%
X106045000Y-75080000D03*
D19*
X108585000Y-75080000D03*
X111125000Y-75080000D03*
X113665000Y-75080000D03*
X116205000Y-75080000D03*
X118745000Y-75080000D03*
X121285000Y-75080000D03*
X123825000Y-75080000D03*
X123825000Y-52220000D03*
X121285000Y-52220000D03*
X118745000Y-52220000D03*
X116205000Y-52220000D03*
X113665000Y-52220000D03*
X111125000Y-52220000D03*
X108585000Y-52220000D03*
X106045000Y-52220000D03*
%TD*%
D11*
%TO.C,R4*%
X78486000Y-96012000D03*
D12*
X86106000Y-96012000D03*
%TD*%
D11*
%TO.C,R2*%
X120269000Y-82042000D03*
D12*
X127889000Y-82042000D03*
%TD*%
D13*
%TO.C,U3*%
X106949000Y-94732000D03*
D12*
X109489000Y-94732000D03*
X112029000Y-94732000D03*
X114569000Y-94732000D03*
X117109000Y-94732000D03*
X119649000Y-94732000D03*
X122189000Y-94732000D03*
X124729000Y-94732000D03*
X124729000Y-87112000D03*
X122189000Y-87112000D03*
X119649000Y-87112000D03*
X117109000Y-87112000D03*
X114569000Y-87112000D03*
X112029000Y-87112000D03*
X109489000Y-87112000D03*
X106949000Y-87112000D03*
%TD*%
D11*
%TO.C,R6*%
X77978000Y-72390000D03*
D12*
X85598000Y-72390000D03*
%TD*%
D20*
%TO.C,U1*%
X117348000Y-115634000D03*
D21*
X119888000Y-98974000D03*
D22*
X117348000Y-98974000D03*
X114808000Y-98974000D03*
%TD*%
D14*
%TO.C,J3*%
X79248000Y-115824000D03*
D15*
X84328000Y-115824000D03*
%TD*%
D11*
%TO.C,C2*%
X106994000Y-82931000D03*
X109494000Y-82931000D03*
%TD*%
D23*
%TO.C,J1*%
X129344500Y-106776000D03*
D24*
X129344500Y-112776000D03*
D25*
X134044500Y-109776000D03*
%TD*%
D16*
%TO.C,C1*%
X121582400Y-46355000D03*
D17*
X123582400Y-46355000D03*
%TD*%
D16*
%TO.C,C6*%
X91102400Y-58420000D03*
D17*
X93102400Y-58420000D03*
%TD*%
D11*
%TO.C,C3*%
X67838000Y-75184000D03*
X70338000Y-75184000D03*
%TD*%
%TO.C,C5*%
X67965000Y-51562000D03*
X70465000Y-51562000D03*
%TD*%
D26*
%TO.C,SW1*%
X93980000Y-100584000D03*
D27*
X96520000Y-100584000D03*
%TD*%
D14*
%TO.C,J4*%
X90932000Y-115824000D03*
D15*
X96012000Y-115824000D03*
%TD*%
D11*
%TO.C,R5*%
X77978000Y-67310000D03*
D12*
X85598000Y-67310000D03*
%TD*%
D15*
%TO.C,J5*%
X107696000Y-115824000D03*
D14*
X102616000Y-115824000D03*
%TD*%
M02*
